<svg viewBox="0 0 1024 1024" version="1.1" xmlns="http://www.w3.org/2000/svg" class=""><rect fill="#000000" width="1024px" height="1024px" x="0" y="0"/><g transform="matrix(2.2799609375,0,0,2.2799609375,216,216)"><path d="M64 0H128V128H64C28.6538 128 0 99.3462 0 64C0 28.6538 28.6538 0 64 0Z" fill="#ffffff"/><path d="M16 64C16 90.5097 37.4903 112 64 112" stroke="#000000" fill="none" stroke-width="3.653571367382254px" stroke-linecap="square"/></g><g transform="matrix(2.2799609375,0,0,2.2799609375,516.165,216)"><g fill="none"><path d="M128 128C128 57.3076 70.6925 6.18013e-06 1.11901e-05 0L0 128L128 128Z" fill="#ffffff"/><path d="M-3.8147e-06 128C-7.24633e-07 92.6538 28.6538 64 64 64C99.3462 64 128 92.6538 128 128" stroke="#000000" fill="none" stroke-width="3.653571367382254px" stroke-linecap="square"/></g></g><g transform="matrix(2.2799609375,0,0,2.2799609375,216,516.165)"><g fill="none"><path d="M128 0C57.3075 8.42999e-07 -8.42999e-07 57.3075 0 128H128V0Z" fill="#ffffff"/><path d="M-0.00292969 0L127.997 128" stroke="#000000" stroke-linecap="square" fill="none" stroke-width="3.653571367382254px"/><line x1="15.9965" y1="111.997" x2="47.9964" y2="79.9965" stroke="#000000" fill="none" stroke-width="3.653571367382254px" stroke-linecap="square"/></g></g><g transform="matrix(2.2799609375,0,0,2.2799609375,516.165,516.165)"><path d="M64 128H0L5.59506e-06 0L64 5.59506e-06C99.3462 8.68512e-06 128 28.6538 128 64C128 99.3462 99.3462 128 64 128Z" fill="#ffffff"/><circle cx="64" cy="64" r="16" stroke="#000000" fill="none" stroke-width="3.653571367382254px" stroke-linecap="square"/></g></svg>